<svg xmlns="http://www.w3.org/2000/svg" width="164" height="192" viewBox="0 0 164 192" fill="none"><g id="Group 44"><g id="line"><mask id="mask0" maskUnits="userSpaceOnUse" x="72" y="116" width="92" height="76"><rect id="Mask" x="72" y="116" width="92" height="76" fill="white"></rect></mask><g mask="url(#mask0)"><g id="line_2"><path id="Line 3 Copy 3" d="M-8 115.5L76.5939 200.094" stroke="#FF3366" stroke-width="2" stroke-linecap="square"></path><path id="Line 3 Copy 4" d="M-1 115.5L83.5939 200.094" stroke="#FF3366" stroke-width="2" stroke-linecap="square"></path><path id="Line 3 Copy 5" d="M6 115.5L90.5939 200.094" stroke="#FF3366" stroke-width="2" stroke-linecap="square"></path><path id="Line 3 Copy 6" d="M13 115.5L97.5939 200.094" stroke="#FF3366" stroke-width="2" stroke-linecap="square"></path><path id="Line 3 Copy 7" d="M20 115.5L104.594 200.094" stroke="#FF3366" stroke-width="2" stroke-linecap="square"></path><path id="Line 3 Copy 8" d="M27 115.5L111.594 200.094" stroke="#FF3366" stroke-width="2" stroke-linecap="square"></path><path id="Line 3 Copy 9" d="M34 115.5L118.594 200.094" stroke="#FF3366" stroke-width="2" stroke-linecap="square"></path><path id="Line 3 Copy 10" d="M41 115.5L125.594 200.094" stroke="#FF3366" stroke-width="2" stroke-linecap="square"></path><path id="Line 3 Copy 11" d="M48 115.5L132.594 200.094" stroke="#FF3366" stroke-width="2" stroke-linecap="square"></path><path id="Line 3 Copy 12" d="M55 115.5L139.594 200.094" stroke="#FF3366" stroke-width="2" stroke-linecap="square"></path><path id="Line 3 Copy 13" d="M62 115.5L146.594 200.094" stroke="#FF3366" stroke-width="2" stroke-linecap="square"></path><path id="Line 3 Copy 14" d="M69 115.5L153.594 200.094" stroke="#FF3366" stroke-width="2" stroke-linecap="square"></path><path id="Line 3 Copy 15" d="M76 115.5L160.594 200.094" stroke="#FF3366" stroke-width="2" stroke-linecap="square"></path><path id="Line 3 Copy 16" d="M83 115.5L167.594 200.094" stroke="#FF3366" stroke-width="2" stroke-linecap="square"></path><path id="Line 3 Copy 17" d="M90 115.5L174.594 200.094" stroke="#FF3366" stroke-width="2" stroke-linecap="square"></path><path id="Line 3 Copy 18" d="M97 115.5L181.594 200.094" stroke="#FF3366" stroke-width="2" stroke-linecap="square"></path><path id="Line 3 Copy 19" d="M104 115.5L188.594 200.094" stroke="#FF3366" stroke-width="2" stroke-linecap="square"></path><path id="Line 3 Copy 20" d="M111 115.5L195.594 200.094" stroke="#FF3366" stroke-width="2" stroke-linecap="square"></path><path id="Line 3 Copy 21" d="M118 115.5L202.594 200.094" stroke="#FF3366" stroke-width="2" stroke-linecap="square"></path><path id="Line 3 Copy 22" d="M125 115.5L209.594 200.094" stroke="#FF3366" stroke-width="2" stroke-linecap="square"></path><path id="Line 3 Copy 23" d="M132 115.5L216.594 200.094" stroke="#FF3366" stroke-width="2" stroke-linecap="square"></path><path id="Line 3 Copy 24" d="M139 115.5L223.594 200.094" stroke="#FF3366" stroke-width="2" stroke-linecap="square"></path><path id="Line 3 Copy 25" d="M146 115.5L230.594 200.094" stroke="#FF3366" stroke-width="2" stroke-linecap="square"></path><path id="Line 3 Copy 26" d="M153 115.5L237.594 200.094" stroke="#FF3366" stroke-width="2" stroke-linecap="square"></path><path id="Line 3 Copy 27" d="M160 115.5L244.594 200.094" stroke="#FF3366" stroke-width="2" stroke-linecap="square"></path></g></g></g><g id="Group 8"><g id="Group 4"><rect id="Rectangle 4" x="113" y="101" width="3" height="3" fill="#333333"></rect><rect id="Rectangle 4 Copy" x="102" y="101" width="3" height="3" fill="#333333"></rect><rect id="Rectangle 4 Copy 2" x="91" y="101" width="3" height="3" fill="#333333"></rect><rect id="Rectangle 4 Copy 3" x="43" y="101" width="3" height="3" fill="#333333"></rect><rect id="Rectangle 4 Copy 4" x="32" y="101" width="3" height="3" fill="#333333"></rect><rect id="Rectangle 4 Copy 5" x="21" y="101" width="3" height="3" fill="#333333"></rect></g><g id="Group 5"><rect id="Rectangle 5" x="47" y="143" width="43" height="19" fill="white"></rect><path id="Rectangle 2 Copy 2" d="M1 65C1 60.5817 4.58172 57 9 57H128C132.418 57 136 60.5817 136 65V135C136 139.418 132.418 143 128 143H9C4.58172 143 1 139.418 1 135V65Z" fill="white" stroke="#333333" stroke-width="2"></path><path id="Rectangle 2 Copy 3" d="M12 68H125V133H12V68Z" stroke="#333333" stroke-width="2"></path><path id="Line Copy 5" d="M47 143.3V160.793" stroke="#333333" stroke-width="2" stroke-linecap="round"></path><path id="Line Copy 7" d="M34.2998 162H102.793" stroke="#333333" stroke-width="2" stroke-linejoin="round"></path><path id="Line Copy 6" d="M90 143.3V160.793" stroke="#333333" stroke-width="2" stroke-linecap="round"></path></g><g id="Group 7"><path id="Oval 10" d="M103.84 38.1067C102.132 20.0923 86.9617 6 68.5002 6C50.0025 6 34.8091 20.1476 33.1504 38.2127" stroke="#333333" stroke-width="2"></path><rect id="Rectangle" x="28" y="38" width="11" height="11" stroke="#333333" stroke-width="2"></rect><rect id="Rectangle Copy" x="98" y="38" width="11" height="11" stroke="#333333" stroke-width="2"></rect><path id="Oval 4 Copy" fill-rule="evenodd" clip-rule="evenodd" d="M26 11C28.7614 11 31 8.76142 31 6C31 3.23858 28.7614 1 26 1C23.2386 1 21 3.23858 21 6C21 8.76142 23.2386 11 26 11Z" stroke="#333333" stroke-width="2"></path><path id="Oval 4 Copy 2" fill-rule="evenodd" clip-rule="evenodd" d="M109 11C111.761 11 114 8.76142 114 6C114 3.23858 111.761 1 109 1C106.239 1 104 3.23858 104 6C104 8.76142 106.239 11 109 11Z" stroke="#333333" stroke-width="2"></path><path id="Line 2 Copy" d="M32.0833 6H103.039" stroke="#333333" stroke-width="2" stroke-linecap="round" stroke-linejoin="round"></path></g><g id="Group 6"><path id="Path 3" fill-rule="evenodd" clip-rule="evenodd" d="M58.49 71.9999H78.4452L84.9288 52.3415L68.0677 20.5856L51.5898 52.3415L58.49 71.9999Z" fill="white"></path><path id="Rectangle 2" d="M49 78.5C49 75.4624 51.4624 73 54.5 73H82.5C85.5376 73 88 75.4624 88 78.5C88 81.5376 85.5376 84 82.5 84H54.5C51.4624 84 49 81.5376 49 78.5Z" stroke="#333333" stroke-width="2"></path><path id="Rectangle 2 Copy" d="M55 86C55 84.8954 55.8954 84 57 84H80C81.1046 84 82 84.8954 82 86V106C82 107.105 81.1046 108 80 108H57C55.8954 108 55 107.105 55 106V86Z" stroke="#333333" stroke-width="2"></path><path id="Oval 4" fill-rule="evenodd" clip-rule="evenodd" d="M68 56C70.7614 56 73 53.7614 73 51C73 48.2386 70.7614 46 68 46C65.2386 46 63 48.2386 63 51C63 53.7614 65.2386 56 68 56Z" stroke="#333333" stroke-width="2"></path><path id="Line" d="M68 19.45V45.6893" stroke="#333333" stroke-width="2" stroke-linecap="round"></path><path id="Line Copy" fill-rule="evenodd" clip-rule="evenodd" d="M68.0003 19.5224C67.667 19.0058 85.3081 52.2177 85.3081 52.2177L68.0003 19.5224Z" stroke="#333333" stroke-width="2" stroke-linecap="round" stroke-linejoin="round"></path><path id="Line Copy 2" fill-rule="evenodd" clip-rule="evenodd" d="M67.9936 19.5224C68.327 19.0057 51.2352 51.98 51.2352 51.98L67.9936 19.5224Z" stroke="#333333" stroke-width="2" stroke-linecap="round" stroke-linejoin="round"></path><path id="Line Copy 3" fill-rule="evenodd" clip-rule="evenodd" d="M85.3697 52.3682C85.703 51.8515 78.6795 73.0007 78.6795 73.0007L85.3697 52.3682Z" stroke="#333333" stroke-width="2" stroke-linecap="round" stroke-linejoin="round"></path><path id="Line Copy 4" fill-rule="evenodd" clip-rule="evenodd" d="M51.2388 52.2603C50.9055 51.7436 58.3844 73.0007 58.3844 73.0007L51.2388 52.2603Z" stroke="#333333" stroke-width="2" stroke-linecap="round" stroke-linejoin="round"></path><path id="Line 2" d="M58.5833 73H78.451" stroke="#333333" stroke-width="2" stroke-linecap="round" stroke-linejoin="round"></path></g></g></g></svg>