<svg xmlns="http://www.w3.org/2000/svg" width="82" height="82" viewBox="0 0 82 82" fill="none"><g filter="url(#filter0_d)"><path fill-rule="evenodd" clip-rule="evenodd" d="M72.1134 34.9653C72.1134 52.1186 58.2078 66.0241 41.0545 66.0241C23.9011 66.0241 9.99561 52.1186 9.99561 34.9653C9.99561 17.8119 23.9011 3.90637 41.0545 3.90637C58.2078 3.90637 72.1134 17.8119 72.1134 34.9653ZM75.1134 34.9653C75.1134 53.7755 59.8647 69.0241 41.0545 69.0241C22.2443 69.0241 6.99561 53.7755 6.99561 34.9653C6.99561 16.1551 22.2443 0.906372 41.0545 0.906372C59.8647 0.906372 75.1134 16.1551 75.1134 34.9653ZM34.3812 21.6255L54.7023 34.2083L34.3812 46.7911L34.3812 21.6255ZM58.3413 32.933C59.2884 33.5194 59.2884 34.8972 58.3413 35.4836L33.6709 50.7594C32.6716 51.3782 31.3812 50.6595 31.3812 49.4841L31.3812 18.9325C31.3812 17.7571 32.6716 17.0384 33.6709 17.6572L58.3413 32.933Z" fill="#FF3366"></path></g><defs><filter id="filter0_d" x="0.995605" y="0.906372" width="80.1178" height="80.1178" filterUnits="userSpaceOnUse" color-interpolation-filters="sRGB"><feGaussianBlur stdDeviation="3"></feGaussianBlur></filter></defs></svg>